<?xml version="1.0" encoding="utf-8"?>
<!-- Generator: Adobe Illustrator 25.0.0, SVG Export Plug-In . SVG Version: 6.00 Build 0)  -->
<svg version="1.1" id="Calque_1" xmlns="http://www.w3.org/2000/svg" xmlns:xlink="http://www.w3.org/1999/xlink" x="0px" y="0px"
	 viewBox="0 0 1366 768" style="enable-background:new 0 0 1366 768;" xml:space="preserve">
<g>
	<g>
		<g>
			<g>
				<path d="M792.1,500.38c-0.66,0.03-1.48-3.15-2.44-9.24c-0.5-3.04-0.96-6.81-1.58-11.25c-0.62-4.44-1.28-9.57-1.98-15.34
					c-0.75-5.76-1.59-12.17-2.51-19.18c-0.49-3.5-1-7.15-1.54-10.95c-0.53-3.8-1.05-7.74-1.69-11.81
					c-0.61-4.08-1.24-8.29-1.89-12.65c-0.7-4.34-1.43-8.82-2.17-13.44c-0.72-4.61-1.55-9.35-2.41-14.2
					c-0.86-4.86-1.69-9.84-2.69-14.93c-3.78-20.37-8.37-42.6-14.05-66.27c-1.46-5.91-2.95-11.92-4.46-18.02
					c-1.6-6.08-3.22-12.26-4.87-18.52c-1.75-6.24-3.52-12.57-5.32-18.99c-0.47-1.6-0.94-3.2-1.42-4.81l-0.71-2.42l-0.04-0.14
					l-0.01-0.01l-0.01-0.03l-0.02-0.05l-0.04-0.1c-0.11-0.27-0.21-0.52-0.31-0.73l-0.26-0.55l-0.06-0.11
					c-0.02-0.02-0.03-0.13-0.06-0.01l-0.12,0.42c-0.12,0.43-0.24,0.87-0.36,1.31c-5.27,13.42-10.66,27.13-16.14,41.08
					c-11,27.9-22.44,56.75-34.23,86.29c-19.63,49.19-38.65,96.37-56.52,140.22l-15.77-8.36c13.03-18.82,26.71-36.11,40.44-52.03
					c1.73-1.98,3.44-3.95,5.15-5.91c1.7-1.97,3.4-3.91,5.15-5.78c3.47-3.77,6.9-7.5,10.29-11.17c3.44-3.62,6.89-7.14,10.27-10.64
					c3.36-3.52,6.78-6.87,10.15-10.18c26.87-26.55,52.15-48.13,73.36-65.63c21.26-17.45,38.57-30.75,50.63-39.62
					c12.07-8.85,18.93-13.24,19.59-12.45c0.67,0.8-4.91,6.73-15.78,17.01c-10.85,10.29-27.02,24.91-47.14,43.44
					c-20.07,18.57-44.2,41-69.81,67.91c-3.21,3.36-6.48,6.75-9.67,10.29c-3.22,3.52-6.48,7.09-9.79,10.71
					c-3.22,3.68-6.49,7.41-9.8,11.19c-1.67,1.87-3.29,3.81-4.9,5.76c-1.62,1.95-3.25,3.91-4.9,5.88
					c-13.06,15.83-26.05,32.88-38.4,51.28l-45.54,67.84l29.78-76.2c17.24-44.11,35.92-91.43,55.55-140.61
					c11.79-29.53,23.35-58.34,34.58-86.14c5.63-13.89,11.16-27.54,16.58-40.91c2.62-6.5,5.22-12.96,7.81-19.38
					c2.57-6.31,5.13-12.59,7.68-18.84c1.26-3.09,2.52-6.16,3.78-9.23l0.47-1.15c0.04-0.05,0.08-0.29,0.11-0.18l0.09,0.31l0.18,0.61
					l0.73,2.44c0.48,1.62,0.96,3.25,1.44,4.87c1.91,6.44,3.81,12.85,5.7,19.22c0.93,3.16,1.87,6.3,2.79,9.44
					c0.92,3.11,1.84,6.2,2.7,9.36c1.1,4,2.2,7.98,3.29,11.93c1.74,6.53,3.35,13.01,4.99,19.37c1.52,6.39,3.02,12.69,4.5,18.9
					c1.37,6.23,2.71,12.35,4.03,18.38c5.09,24.14,8.97,46.8,11.94,67.54c0.8,5.18,1.42,10.26,2.06,15.2
					c0.65,4.94,1.26,9.76,1.75,14.45c0.51,4.69,1,9.25,1.48,13.67c0.4,4.43,0.79,8.71,1.17,12.85c0.4,4.14,0.66,8.15,0.93,12
					c0.26,3.86,0.51,7.56,0.76,11.12c0.35,7.12,0.66,13.61,0.87,19.46c0.14,5.85,0.22,11.05,0.25,15.55
					c0.03,4.5-0.11,8.32-0.24,11.41C793.21,497.1,792.75,500.34,792.1,500.38z"/>
			</g>
		</g>
	</g>
	<g>
		<g>
			<g>
				<path d="M732.26,554.22c0.03-1.33,5.65-2.38,15.7-3.48c10.04-1.12,24.55-2.26,42.29-4.28c4.43-0.56,9.07-1.05,13.87-1.75
					c2.4-0.35,4.86-0.62,7.35-1.03c2.48-0.39,5.01-0.79,7.59-1.19c10.25-1.75,21.12-3.87,32.24-6.84
					c11.05-3.05,22.4-6.99,32.82-12.55c5.11-2.82,10.02-6.11,13.62-9.9c1.78-1.87,3.31-3.87,4.12-5.69
					c0.23-0.45,0.39-0.88,0.52-1.28c0.14-0.42,0.21-0.68,0.28-1.17c0.04-0.51,0.16-0.99,0.18-1.51c-0.02-0.53,0.07-1.03,0.02-1.58
					c-0.14-4.28-2.23-9.39-5.28-13.69c-0.37-0.53-0.77-1.05-1.09-1.46c-0.08-0.11-0.36-0.4-0.54-0.62c-0.2-0.23-0.41-0.46-0.63-0.68
					c-0.85-0.9-1.78-1.74-2.78-2.54c-1.98-1.6-4.24-3.01-6.65-4.25c-4.84-2.48-10.31-4.25-15.9-5.59
					c-5.61-1.34-11.35-2.26-17.1-3.02c-5.78-0.78-11.46-1.32-17.49-2.25c-1.52-0.24-3.07-0.52-4.75-0.91
					c-0.86-0.21-1.71-0.42-2.7-0.75c-0.99-0.34-2.01-0.69-3.36-1.42c-0.33-0.18-0.72-0.43-1.06-0.65c-0.37-0.24-0.81-0.59-1.19-0.91
					c-0.44-0.39-0.88-0.83-1.31-1.34c-0.23-0.29-0.46-0.59-0.67-0.9l-0.3-0.47c-0.1-0.18-0.2-0.37-0.3-0.56
					c-0.19-0.38-0.36-0.77-0.51-1.17c-0.14-0.41-0.26-0.85-0.35-1.28c-0.05-0.22-0.09-0.43-0.12-0.65c15.23-2.3,4.1-0.62,7.31-1.08
					c-1.35,0.42,2.66-0.87-7.04,2.21c0-0.03-0.04-0.09-0.19-0.71c0.51-0.26-2.24-2.36,2.85-8.15c6.49-3.1,2.84-1.05,3.88-1.66
					l0.09-0.01l1.22-0.12c1.32-0.11,2.64-0.22,3.94-0.34c4.98-0.46,9.65-1.15,13.61-2.3c1.97-0.57,3.73-1.27,5.05-2.01
					c1.46-0.91,1.7-1.07,2.13-1.67c0.19-0.28,0.32-0.61,0.36-0.95c0.02-0.17,0.03-0.34,0.02-0.52c0-0.09-0.01-0.17-0.02-0.26
					l-0.01-0.11c0-0.05-0.03-0.17-0.05-0.26c-0.09-0.39-0.2-0.82-0.35-1.33c-0.11-0.34-0.2-0.61-0.29-0.93
					c-0.23-0.59-0.48-1.18-0.82-1.74c-1.31-2.26-3.66-4.24-6.26-5.73c-1.31-0.75-2.62-1.38-4.06-1.96
					c-0.65-0.24-1.29-0.48-1.92-0.71c-0.64-0.21-1.28-0.35-1.9-0.54c-2.52-0.61-4.98-0.79-7.24-0.75c-4.54,0.08-8.2,0.99-10.74,1.52
					c-2.54,0.57-4.03,0.81-4.39,0.24c-0.34-0.54,0.48-1.89,2.71-3.68c2.24-1.74,5.88-4.02,11.36-5.4c2.73-0.68,5.94-1.11,9.51-0.9
					c0.89,0.09,1.81,0.14,2.73,0.28c0.92,0.17,1.88,0.35,2.82,0.54c1.74,0.4,3.69,0.97,5.63,1.74c1.95,0.78,3.95,1.77,5.94,3.11
					c1.98,1.34,3.95,3.04,5.65,5.23c0.86,1.09,1.61,2.31,2.29,3.6c0.3,0.65,0.62,1.35,0.9,2c0.2,0.49,0.43,1.07,0.65,1.71l0.17,0.52
					l0.2,0.67c0.12,0.44,0.23,0.88,0.33,1.33c0.18,0.89,0.3,1.81,0.33,2.73c0.07,1.85-0.23,3.74-0.96,5.51
					c-0.7,1.77-1.72,3.47-3.06,4.95c-0.32,0.38-0.67,0.74-1.04,1.09c-0.32,0.31-0.63,0.62-0.95,0.88c-0.64,0.56-1.29,1.06-1.95,1.53
					c-2.64,1.84-5.33,3.1-8.02,4.13c-5.38,2.03-10.86,3.18-16.4,4.07c-1.34,0.2-2.68,0.4-4.04,0.6l-0.79,0.13l-0.04,0.01
					c1.04,7.05-1.46-9.59-1.22-7.92c0,0,0.05,0.03,0.25-0.02c0.85-0.25-1.73,0.58,7.41-2.32c0.01,0.03,0.06,0.18,0.14,0.47
					c-2.64,0.52,6.23,0.13-5.84,1.81l0,0c0,0-0.01,0-0.02,0c0.06-0.02,0.11-0.04,0.15-0.06c0.4-0.16,1.65-1.34,2.8-3.59
					c0.17-0.3,0.33-0.61,0.48-0.92l0.11-0.23c0.04-0.08,0.08-0.18,0.06-0.15l-0.01,0c0.03,0,0.07,0.01,0.1,0.02
					c0.1,0.02,0.22,0.06,0.41,0.11c0.33,0.09,0.84,0.18,1.33,0.28c1.05,0.18,2.27,0.34,3.55,0.47c5.19,0.53,11.12,0.84,17.21,1.41
					c6.11,0.56,12.51,1.34,19.11,2.71c6.59,1.39,13.44,3.34,20.25,6.64c6.78,3.33,13.58,8.04,18.77,15.19
					c2.38,3.34,4.42,6.88,6,10.86c1.58,3.97,2.71,8.37,2.9,13.12c0.08,1.17-0.02,2.39-0.05,3.58c-0.06,1.19-0.28,2.4-0.44,3.59
					c-0.19,1.2-0.55,2.6-0.96,3.79c-0.41,1.22-0.88,2.38-1.41,3.45c-2.08,4.36-4.83,7.72-7.68,10.68c-2.86,2.96-5.93,5.36-9.01,7.52
					l-2.33,1.57c-0.78,0.5-1.57,0.95-2.35,1.43c-0.79,0.46-1.56,0.96-2.35,1.38c-0.79,0.42-1.58,0.84-2.37,1.26
					c-12.66,6.43-25.31,10.3-37.38,13.13c-12.09,2.71-23.62,4.33-34.41,5.47c-2.7,0.24-5.35,0.47-7.95,0.7
					c-2.6,0.24-5.15,0.34-7.66,0.5c-5,0.34-9.8,0.43-14.38,0.56c-18.31,0.34-33.06-0.58-43.21-1.73
					C737.77,556.96,732.22,555.52,732.26,554.22z"/>
			</g>
		</g>
	</g>
</g>
</svg>
